<mxfile host="app.diagrams.net" modified="2024-04-27T07:40:06.865Z" agent="Mozilla/5.0 (Windows NT 10.0; Win64; x64) AppleWebKit/537.36 (KHTML, like Gecko) Chrome/121.0.0.0 Safari/537.36" etag="s5GmNTLS5i6GmA7WJcWu" version="24.3.0" type="github">
  <diagram name="Page-1" id="AgnhyLZByRdbrBLprc9_">
    <mxGraphModel dx="1050" dy="557" grid="1" gridSize="10" guides="1" tooltips="1" connect="1" arrows="1" fold="1" page="1" pageScale="1" pageWidth="850" pageHeight="1100" math="0" shadow="0">
      <root>
        <mxCell id="0" />
        <mxCell id="1" parent="0" />
        <mxCell id="MMfc6vFurPr9cZnwIQf3-12" value="" style="rounded=0;whiteSpace=wrap;html=1;rotation=90;dashed=1;" parent="1" vertex="1">
          <mxGeometry x="120" y="185" width="600" height="440" as="geometry" />
        </mxCell>
        <mxCell id="MMfc6vFurPr9cZnwIQf3-22" style="edgeStyle=orthogonalEdgeStyle;rounded=0;orthogonalLoop=1;jettySize=auto;html=1;entryX=1;entryY=0.5;entryDx=0;entryDy=0;" parent="1" target="MMfc6vFurPr9cZnwIQf3-5" edge="1">
          <mxGeometry relative="1" as="geometry">
            <mxPoint x="760" y="220" as="sourcePoint" />
          </mxGeometry>
        </mxCell>
        <mxCell id="MMfc6vFurPr9cZnwIQf3-23" style="edgeStyle=orthogonalEdgeStyle;rounded=0;orthogonalLoop=1;jettySize=auto;html=1;exitX=0.5;exitY=1;exitDx=0;exitDy=0;entryX=0.5;entryY=0;entryDx=0;entryDy=0;" parent="1" source="MMfc6vFurPr9cZnwIQf3-4" target="MMfc6vFurPr9cZnwIQf3-5" edge="1">
          <mxGeometry relative="1" as="geometry" />
        </mxCell>
        <mxCell id="MMfc6vFurPr9cZnwIQf3-4" value="&lt;b&gt;Registration&lt;/b&gt;" style="ellipse;whiteSpace=wrap;html=1;strokeWidth=2;" parent="1" vertex="1">
          <mxGeometry x="241" y="120" width="360" height="40" as="geometry" />
        </mxCell>
        <mxCell id="MMfc6vFurPr9cZnwIQf3-24" style="edgeStyle=orthogonalEdgeStyle;rounded=0;orthogonalLoop=1;jettySize=auto;html=1;" parent="1" source="MMfc6vFurPr9cZnwIQf3-5" target="MMfc6vFurPr9cZnwIQf3-6" edge="1">
          <mxGeometry relative="1" as="geometry" />
        </mxCell>
        <mxCell id="MMfc6vFurPr9cZnwIQf3-5" value="&lt;b&gt;Admin Verification and Approval&lt;/b&gt;" style="ellipse;whiteSpace=wrap;html=1;strokeWidth=2;" parent="1" vertex="1">
          <mxGeometry x="240" y="200" width="361" height="40" as="geometry" />
        </mxCell>
        <mxCell id="MMfc6vFurPr9cZnwIQf3-6" value="&lt;b&gt;Login&lt;/b&gt;" style="ellipse;whiteSpace=wrap;html=1;strokeWidth=2;" parent="1" vertex="1">
          <mxGeometry x="240" y="280" width="360" height="40" as="geometry" />
        </mxCell>
        <mxCell id="MMfc6vFurPr9cZnwIQf3-34" style="edgeStyle=orthogonalEdgeStyle;rounded=0;orthogonalLoop=1;jettySize=auto;html=1;entryX=0.5;entryY=0;entryDx=0;entryDy=0;" parent="1" source="MMfc6vFurPr9cZnwIQf3-7" target="MMfc6vFurPr9cZnwIQf3-8" edge="1">
          <mxGeometry relative="1" as="geometry" />
        </mxCell>
        <mxCell id="MMfc6vFurPr9cZnwIQf3-7" value="&lt;b&gt;Create Food Request&lt;/b&gt;" style="ellipse;whiteSpace=wrap;html=1;strokeWidth=2;" parent="1" vertex="1">
          <mxGeometry x="240" y="360" width="360" height="40" as="geometry" />
        </mxCell>
        <mxCell id="MMfc6vFurPr9cZnwIQf3-35" style="edgeStyle=orthogonalEdgeStyle;rounded=0;orthogonalLoop=1;jettySize=auto;html=1;entryX=0.5;entryY=0;entryDx=0;entryDy=0;" parent="1" source="MMfc6vFurPr9cZnwIQf3-8" target="MMfc6vFurPr9cZnwIQf3-9" edge="1">
          <mxGeometry relative="1" as="geometry" />
        </mxCell>
        <mxCell id="MMfc6vFurPr9cZnwIQf3-8" value="&lt;b&gt;Accepts Food Request&lt;/b&gt;" style="ellipse;whiteSpace=wrap;html=1;strokeWidth=2;" parent="1" vertex="1">
          <mxGeometry x="240" y="440" width="360" height="40" as="geometry" />
        </mxCell>
        <mxCell id="MMfc6vFurPr9cZnwIQf3-9" value="&lt;b&gt;Delivering the Food&lt;/b&gt;" style="ellipse;whiteSpace=wrap;html=1;strokeWidth=2;" parent="1" vertex="1">
          <mxGeometry x="240" y="520" width="360" height="40" as="geometry" />
        </mxCell>
        <mxCell id="MMfc6vFurPr9cZnwIQf3-10" value="&lt;b&gt;Closing the request&lt;/b&gt;" style="ellipse;whiteSpace=wrap;html=1;strokeWidth=2;" parent="1" vertex="1">
          <mxGeometry x="240" y="600" width="360" height="40" as="geometry" />
        </mxCell>
        <mxCell id="MMfc6vFurPr9cZnwIQf3-17" value="" style="endArrow=classic;startArrow=classic;html=1;rounded=0;entryX=0;entryY=0.5;entryDx=0;entryDy=0;exitX=0;exitY=0.5;exitDx=0;exitDy=0;" parent="1" source="MMfc6vFurPr9cZnwIQf3-10" target="MMfc6vFurPr9cZnwIQf3-4" edge="1">
          <mxGeometry width="50" height="50" relative="1" as="geometry">
            <mxPoint x="100" y="380" as="sourcePoint" />
            <mxPoint x="150" y="330" as="targetPoint" />
            <Array as="points">
              <mxPoint x="120" y="620" />
              <mxPoint x="120" y="140" />
            </Array>
          </mxGeometry>
        </mxCell>
        <mxCell id="MMfc6vFurPr9cZnwIQf3-18" value="" style="endArrow=classic;html=1;rounded=0;entryX=0;entryY=0.5;entryDx=0;entryDy=0;" parent="1" target="MMfc6vFurPr9cZnwIQf3-6" edge="1">
          <mxGeometry width="50" height="50" relative="1" as="geometry">
            <mxPoint x="120" y="300" as="sourcePoint" />
            <mxPoint x="170" y="250" as="targetPoint" />
          </mxGeometry>
        </mxCell>
        <mxCell id="MMfc6vFurPr9cZnwIQf3-19" value="" style="endArrow=classic;html=1;rounded=0;entryX=0;entryY=0.5;entryDx=0;entryDy=0;" parent="1" edge="1">
          <mxGeometry width="50" height="50" relative="1" as="geometry">
            <mxPoint x="120" y="379.5" as="sourcePoint" />
            <mxPoint x="240" y="379.5" as="targetPoint" />
          </mxGeometry>
        </mxCell>
        <mxCell id="MMfc6vFurPr9cZnwIQf3-20" value="" style="endArrow=classic;html=1;rounded=0;entryX=0;entryY=0.5;entryDx=0;entryDy=0;" parent="1" edge="1">
          <mxGeometry width="50" height="50" relative="1" as="geometry">
            <mxPoint x="121" y="539.5" as="sourcePoint" />
            <mxPoint x="241" y="539.5" as="targetPoint" />
          </mxGeometry>
        </mxCell>
        <mxCell id="MMfc6vFurPr9cZnwIQf3-31" value="" style="endArrow=classic;startArrow=classic;html=1;rounded=0;exitX=1;exitY=0.5;exitDx=0;exitDy=0;entryX=1;entryY=0.5;entryDx=0;entryDy=0;" parent="1" source="MMfc6vFurPr9cZnwIQf3-4" target="MMfc6vFurPr9cZnwIQf3-9" edge="1">
          <mxGeometry width="50" height="50" relative="1" as="geometry">
            <mxPoint x="680" y="520" as="sourcePoint" />
            <mxPoint x="720" y="560" as="targetPoint" />
            <Array as="points">
              <mxPoint x="720" y="140" />
              <mxPoint x="720" y="540" />
            </Array>
          </mxGeometry>
        </mxCell>
        <mxCell id="MMfc6vFurPr9cZnwIQf3-32" value="" style="endArrow=classic;html=1;rounded=0;entryX=1;entryY=0.5;entryDx=0;entryDy=0;" parent="1" target="MMfc6vFurPr9cZnwIQf3-6" edge="1">
          <mxGeometry width="50" height="50" relative="1" as="geometry">
            <mxPoint x="720" y="300" as="sourcePoint" />
            <mxPoint x="700" y="330" as="targetPoint" />
          </mxGeometry>
        </mxCell>
        <mxCell id="MMfc6vFurPr9cZnwIQf3-33" value="" style="endArrow=classic;html=1;rounded=0;entryX=1;entryY=0.5;entryDx=0;entryDy=0;" parent="1" edge="1">
          <mxGeometry width="50" height="50" relative="1" as="geometry">
            <mxPoint x="721" y="459.5" as="sourcePoint" />
            <mxPoint x="601" y="459.5" as="targetPoint" />
          </mxGeometry>
        </mxCell>
        <mxCell id="-LcQ34gHXqqqymL0tev5-1" value="&lt;b&gt;&lt;font style=&quot;font-size: 14px;&quot;&gt;Admin&lt;/font&gt;&lt;/b&gt;" style="sketch=0;outlineConnect=0;fontColor=#232F3E;gradientColor=none;strokeColor=#232F3E;fillColor=#ffffff;dashed=0;verticalLabelPosition=bottom;verticalAlign=top;align=center;html=1;fontSize=12;fontStyle=0;aspect=fixed;shape=mxgraph.aws4.resourceIcon;resIcon=mxgraph.aws4.user;" vertex="1" parent="1">
          <mxGeometry x="760" y="190" width="60" height="60" as="geometry" />
        </mxCell>
        <mxCell id="-LcQ34gHXqqqymL0tev5-3" style="edgeStyle=orthogonalEdgeStyle;rounded=0;orthogonalLoop=1;jettySize=auto;html=1;" edge="1" parent="1" source="-LcQ34gHXqqqymL0tev5-2">
          <mxGeometry relative="1" as="geometry">
            <mxPoint x="720" y="365" as="targetPoint" />
          </mxGeometry>
        </mxCell>
        <mxCell id="-LcQ34gHXqqqymL0tev5-2" value="&lt;b&gt;&lt;font style=&quot;font-size: 14px;&quot;&gt;Hotel&lt;/font&gt;&lt;/b&gt;" style="sketch=0;outlineConnect=0;fontColor=#232F3E;gradientColor=none;strokeColor=#232F3E;fillColor=#ffffff;dashed=0;verticalLabelPosition=bottom;verticalAlign=top;align=center;html=1;fontSize=12;fontStyle=0;aspect=fixed;shape=mxgraph.aws4.resourceIcon;resIcon=mxgraph.aws4.user;" vertex="1" parent="1">
          <mxGeometry x="760" y="335" width="60" height="60" as="geometry" />
        </mxCell>
        <mxCell id="-LcQ34gHXqqqymL0tev5-5" style="edgeStyle=orthogonalEdgeStyle;rounded=0;orthogonalLoop=1;jettySize=auto;html=1;" edge="1" parent="1" source="-LcQ34gHXqqqymL0tev5-4">
          <mxGeometry relative="1" as="geometry">
            <mxPoint x="120" y="380" as="targetPoint" />
          </mxGeometry>
        </mxCell>
        <mxCell id="-LcQ34gHXqqqymL0tev5-4" value="&lt;b&gt;&lt;font style=&quot;font-size: 14px;&quot;&gt;Orphanage&lt;/font&gt;&lt;/b&gt;" style="sketch=0;outlineConnect=0;fontColor=#232F3E;gradientColor=none;strokeColor=#232F3E;fillColor=#ffffff;dashed=0;verticalLabelPosition=bottom;verticalAlign=top;align=center;html=1;fontSize=12;fontStyle=0;aspect=fixed;shape=mxgraph.aws4.resourceIcon;resIcon=mxgraph.aws4.user;" vertex="1" parent="1">
          <mxGeometry x="20" y="350" width="60" height="60" as="geometry" />
        </mxCell>
      </root>
    </mxGraphModel>
  </diagram>
</mxfile>
